<svg width="25" height="25" viewBox="0 0 25 25" fill="none" xmlns="http://www.w3.org/2000/svg">
<path d="M12.4852 11.6699L19.1259 5.0293C19.5848 4.57031 20.327 4.57031 20.7811 5.0293L21.8846 6.13281C22.3436 6.5918 22.3436 7.33398 21.8846 7.78809L17.1825 12.5L21.8895 17.207C22.3485 17.666 22.3485 18.4082 21.8895 18.8623L20.786 19.9707C20.327 20.4297 19.5848 20.4297 19.1307 19.9707L12.4901 13.3301C12.0262 12.8711 12.0262 12.1289 12.4852 11.6699ZM3.11023 13.3301L9.75086 19.9707C10.2098 20.4297 10.952 20.4297 11.4061 19.9707L12.5096 18.8672C12.9686 18.4082 12.9686 17.666 12.5096 17.2119L7.8075 12.5L12.5145 7.79297C12.9735 7.33398 12.9735 6.5918 12.5145 6.1377L11.411 5.0293C10.952 4.57031 10.2098 4.57031 9.75574 5.0293L3.11511 11.6699C2.65125 12.1289 2.65125 12.8711 3.11023 13.3301Z" fill="#EBEBEB"/>
</svg>
