<svg width="25" height="25" viewBox="0 0 25 25" fill="none" xmlns="http://www.w3.org/2000/svg">
<path d="M12.5146 13.3301L5.87402 19.9707C5.41504 20.4297 4.67285 20.4297 4.21875 19.9707L3.11523 18.8672C2.65625 18.4082 2.65625 17.666 3.11523 17.2119L7.82227 12.5049L3.11523 7.79785C2.65625 7.33887 2.65625 6.59668 3.11523 6.14258L4.21387 5.0293C4.67285 4.57031 5.41504 4.57031 5.86914 5.0293L12.5098 11.6699C12.9736 12.1289 12.9736 12.8711 12.5146 13.3301ZM21.8896 11.6699L15.249 5.0293C14.79 4.57031 14.0479 4.57031 13.5937 5.0293L12.4902 6.13281C12.0312 6.5918 12.0312 7.33398 12.4902 7.78809L17.1973 12.4951L12.4902 17.2021C12.0312 17.6611 12.0312 18.4033 12.4902 18.8574L13.5937 19.9609C14.0527 20.4199 14.7949 20.4199 15.249 19.9609L21.8896 13.3203C22.3486 12.8711 22.3486 12.1289 21.8896 11.6699Z" fill="#EBEBEB"/>
</svg>
