<svg width="26" height="26" viewBox="0 0 26 26" fill="none" xmlns="http://www.w3.org/2000/svg">
<path d="M14.1382 21.9985L13.0542 23.0825C12.5952 23.5415 11.853 23.5415 11.3989 23.0825L1.90674 13.5952C1.44775 13.1362 1.44775 12.394 1.90674 11.9399L11.3989 2.44772C11.8579 1.98874 12.6001 1.98874 13.0542 2.44772L14.1382 3.53171C14.6021 3.99558 14.5923 4.75241 14.1187 5.20651L8.23486 10.812H22.2681C22.9175 10.812 23.4399 11.3344 23.4399 11.9839V13.5464C23.4399 14.1958 22.9175 14.7182 22.2681 14.7182H8.23486L14.1187 20.3237C14.5972 20.7778 14.6069 21.5346 14.1382 21.9985Z" fill="#EEEEEE"/>
</svg>
