<svg width="26" height="26" viewBox="0 0 26 26" fill="none" xmlns="http://www.w3.org/2000/svg">
<g clip-path="url(#clip0_58_4)">
<path d="M16.2891 8.90396L14.1943 10.9987L14.1797 6.79947L16.2891 8.90396ZM14.1797 19.6364L16.2842 17.5319L14.1895 15.4372L14.1797 19.6364ZM22.3145 13.2155C22.3145 23.2545 18.8037 25.5495 13.2764 25.5495C7.74902 25.5495 3.56445 23.2545 3.56445 13.2155C3.56445 3.17642 7.63672 0.549469 13.1641 0.549469C18.6914 0.549469 22.3145 3.1813 22.3145 13.2155ZM14.5752 13.2155L18.4521 8.88931L12.3438 2.3317V10.9694L8.74023 7.36588L7.42188 8.67935L11.9482 13.2204L7.42188 17.7614L8.73535 19.0749L12.3389 15.4713L12.4512 23.7721L18.6719 17.5465L14.5752 13.2155Z" fill="#EBEBEB"/>
</g>
<defs>
<clipPath id="clip0_58_4">
<rect width="25" height="25" fill="white" transform="translate(0.439453 0.549469)"/>
</clipPath>
</defs>
</svg>
