<svg width="26" height="26" viewBox="0 0 26 26" fill="none" xmlns="http://www.w3.org/2000/svg">
<g clip-path="url(#clip0_94_6)">
<path d="M24.2107 15.5626L22.1307 14.3614C22.3406 13.2286 22.3406 12.0665 22.1307 10.9337L24.2107 9.73253C24.45 9.59581 24.5574 9.31261 24.4793 9.04894C23.9373 7.31065 23.0145 5.73839 21.8084 4.42979C21.6229 4.2296 21.3201 4.18077 21.0857 4.31749L19.0057 5.51866C18.1316 4.76671 17.1258 4.18565 16.0369 3.80479V1.40733C16.0369 1.1339 15.8465 0.894638 15.5779 0.836044C13.7859 0.435654 11.95 0.455185 10.2459 0.836044C9.97735 0.894638 9.78692 1.1339 9.78692 1.40733V3.80968C8.70294 4.19542 7.69708 4.77647 6.81817 5.52354L4.74297 4.32237C4.50372 4.18565 4.20587 4.2296 4.02032 4.43468C2.81426 5.73839 1.89141 7.31065 1.34942 9.05382C1.26641 9.31749 1.37872 9.60069 1.61797 9.73741L3.69805 10.9386C3.48809 12.0714 3.48809 13.2335 3.69805 14.3663L1.61797 15.5675C1.37872 15.7042 1.27129 15.9874 1.34942 16.2511C1.89141 17.9894 2.81426 19.5616 4.02032 20.8702C4.20587 21.0704 4.5086 21.1192 4.74297 20.9825L6.82305 19.7814C7.69708 20.5333 8.70294 21.1144 9.7918 21.4952V23.8976C9.7918 24.171 9.98223 24.4103 10.2508 24.4689C12.0428 24.8692 13.8787 24.8497 15.5828 24.4689C15.8514 24.4103 16.0418 24.171 16.0418 23.8976V21.4952C17.1258 21.1095 18.1316 20.5284 19.0106 19.7814L21.0906 20.9825C21.3299 21.1192 21.6277 21.0753 21.8133 20.8702C23.0193 19.5665 23.9422 17.9942 24.4842 16.2511C24.5574 15.9825 24.45 15.6993 24.2107 15.5626ZM12.9119 16.5538C10.7586 16.5538 9.00567 14.8009 9.00567 12.6476C9.00567 10.4942 10.7586 8.74132 12.9119 8.74132C15.0652 8.74132 16.8182 10.4942 16.8182 12.6476C16.8182 14.8009 15.0652 16.5538 12.9119 16.5538Z" fill="#EBEBEB"/>
</g>
<defs>
<clipPath id="clip0_94_6">
<rect width="25" height="25" fill="white" transform="translate(0.412109 0.147583)"/>
</clipPath>
</defs>
</svg>
