<svg width="26" height="26" viewBox="0 0 26 26" fill="none" xmlns="http://www.w3.org/2000/svg">
<g clip-path="url(#clip0_85_2)">
<path d="M14.2754 7.40112V0.760498H4.50977C3.86035 0.760498 3.33789 1.28296 3.33789 1.93237V24.5886C3.33789 25.238 3.86035 25.7605 4.50977 25.7605H20.916C21.5654 25.7605 22.0879 25.238 22.0879 24.5886V8.573H15.4473C14.8027 8.573 14.2754 8.04565 14.2754 7.40112ZM11.1504 20.4871C11.1504 21.0095 10.5205 21.2683 10.1494 20.9021L8.41602 19.1199H7.04883C6.72656 19.1199 6.46289 18.8562 6.46289 18.5339V15.7996C6.46289 15.4773 6.72656 15.2136 7.04883 15.2136H8.41602L10.1494 13.4314C10.5205 13.0603 11.1504 13.324 11.1504 13.8464V20.4871ZM12.7715 18.1628C13.2158 17.7087 13.2158 16.9861 12.7715 16.532C11.6924 15.4187 13.3672 13.7878 14.4512 14.8962C15.7793 16.2585 15.7793 18.4314 14.4512 19.7986C13.3867 20.8875 11.6729 19.2908 12.7715 18.1628ZM16.9707 12.4451C19.627 15.1746 19.627 19.5154 16.9707 22.2498C15.9063 23.3435 14.1875 21.7468 15.291 20.614C17.0586 18.7976 17.0635 15.9021 15.291 14.0808C14.2119 12.9675 15.8916 11.3318 16.9707 12.4451ZM22.0879 6.71265V7.0105H15.8379V0.760498H16.1357C16.4482 0.760498 16.7461 0.882568 16.9658 1.10229L21.7461 5.88745C21.9658 6.10718 22.0879 6.40503 22.0879 6.71265Z" fill="#EBEBEB"/>
</g>
<defs>
<clipPath id="clip0_85_2">
<rect width="25" height="25" fill="white" transform="translate(0.212891 0.760498)"/>
</clipPath>
</defs>
</svg>
