<svg width="26" height="26" viewBox="0 0 26 26" fill="none" xmlns="http://www.w3.org/2000/svg">
<g clip-path="url(#clip0_87_4)">
<path d="M12.5371 1.3396C5.84976 1.3396 0.427734 6.76357 0.427734 13.449C0.427734 20.1383 5.84976 25.5583 12.5371 25.5583C19.2245 25.5583 24.6465 20.1383 24.6465 13.449C24.6465 6.76357 19.2245 1.3396 12.5371 1.3396ZM12.5371 6.71069C13.6697 6.71069 14.5879 7.62886 14.5879 8.76147C14.5879 9.89409 13.6697 10.8123 12.5371 10.8123C11.4045 10.8123 10.4863 9.89409 10.4863 8.76147C10.4863 7.62886 11.4045 6.71069 12.5371 6.71069ZM15.2715 19.113C15.2715 19.4366 15.0091 19.699 14.6855 19.699H10.3887C10.0651 19.699 9.80273 19.4366 9.80273 19.113V17.9412C9.80273 17.6176 10.0651 17.3552 10.3887 17.3552H10.9746V14.2302H10.3887C10.0651 14.2302 9.80273 13.9679 9.80273 13.6443V12.4724C9.80273 12.1488 10.0651 11.8865 10.3887 11.8865H13.5137C13.8373 11.8865 14.0996 12.1488 14.0996 12.4724V17.3552H14.6855C15.0091 17.3552 15.2715 17.6176 15.2715 17.9412V19.113Z" fill="#EBEBEB"/>
</g>
<defs>
<clipPath id="clip0_87_4">
<rect width="25" height="25" fill="white" transform="translate(0.0371094 0.948975)"/>
</clipPath>
</defs>
</svg>
