<svg width="11" height="13" viewBox="0 0 11 13" fill="none" xmlns="http://www.w3.org/2000/svg">
<path d="M10.9402 10.2316C10.7568 11.0187 10.161 11.4611 9.36181 11.6105C8.66 11.7398 8.07564 11.7714 7.51419 11.3175C6.82957 10.74 6.82098 9.78343 7.43685 9.18016C7.92382 8.71478 8.60844 8.61998 9.6368 8.439C9.80867 8.4074 9.95763 8.36718 10.0837 8.22642C10.267 8.01958 10.2097 8.10864 10.2097 3.53814C10.2097 3.2164 10.0522 3.12734 9.72274 3.1848C9.48785 3.22502 4.40332 4.17876 4.40332 4.17876C4.11114 4.24196 4.01947 4.32814 4.01947 4.6585C4.01947 11.4008 4.05098 11.0905 3.94786 11.5387C3.82755 12.0615 3.50673 12.4551 3.08278 12.6734C2.60154 12.9406 1.73072 13.0583 1.26667 12.9722C0.0291968 12.7395 -0.40621 11.306 0.433094 10.4844C0.920063 10.019 1.60468 9.9242 2.63305 9.74321C2.80492 9.71161 2.95387 9.6714 3.07991 9.53063C3.36923 9.20027 3.13147 2.15924 3.22887 1.76855C3.25178 1.61917 3.3148 1.49277 3.43225 1.39797C3.55256 1.29742 3.77026 1.23997 3.81609 1.23997C9.65972 0.142589 10.373 0.00182625 10.4732 0.00182625C10.8027 -0.0211555 10.9917 0.174189 10.9917 0.507425C10.9974 10.4039 11.0232 9.87249 10.9402 10.2316Z" fill="#EBEBEB"/>
</svg>
