<svg width="25" height="25" viewBox="0 0 25 25" fill="none" xmlns="http://www.w3.org/2000/svg">
<path d="M8.59375 23.3887H3.90625C2.6123 23.3887 1.5625 22.3389 1.5625 21.0449V3.85742C1.5625 2.56348 2.6123 1.51367 3.90625 1.51367H8.59375C9.8877 1.51367 10.9375 2.56348 10.9375 3.85742V21.0449C10.9375 22.3389 9.8877 23.3887 8.59375 23.3887ZM23.4375 21.0449V3.85742C23.4375 2.56348 22.3877 1.51367 21.0938 1.51367H16.4062C15.1123 1.51367 14.0625 2.56348 14.0625 3.85742V21.0449C14.0625 22.3389 15.1123 23.3887 16.4062 23.3887H21.0938C22.3877 23.3887 23.4375 22.3389 23.4375 21.0449Z" fill="#EBEBEB"/>
</svg>
