<svg width="25" height="25" viewBox="0 0 25 25" fill="none" xmlns="http://www.w3.org/2000/svg">
<g clip-path="url(#clip0_2_90)">
<path d="M10.4995 3.46925L6.15527 7.81251H1.17188C0.524414 7.81251 0 8.33692 0 8.98439V16.0156C0 16.6626 0.524414 17.1875 1.17188 17.1875H6.15527L10.4995 21.5308C11.2334 22.2647 12.5 21.749 12.5 20.7022V4.29786C12.5 3.25001 11.2324 2.73634 10.4995 3.46925ZM22.541 12.5L24.7695 10.2715C25.0771 9.96388 25.0771 9.46485 24.7695 9.15724L23.6553 8.04298C23.3477 7.73536 22.8486 7.73536 22.541 8.04298L20.3125 10.2715L18.084 8.04298C17.7764 7.73536 17.2773 7.73536 16.9697 8.04298L15.8555 9.15724C15.5479 9.46485 15.5479 9.96388 15.8555 10.2715L18.084 12.5L15.856 14.728C15.5483 15.0357 15.5483 15.5347 15.856 15.8423L16.9702 16.9566C17.2778 17.2642 17.7769 17.2642 18.0845 16.9566L20.3125 14.7285L22.541 16.957C22.8486 17.2647 23.3477 17.2647 23.6553 16.957L24.7695 15.8428C25.0771 15.5352 25.0771 15.0361 24.7695 14.7285L22.541 12.5Z" fill="#EBEBEB"/>
</g>
<defs>
<clipPath id="clip0_2_90">
<rect width="25" height="25" fill="white"/>
</clipPath>
</defs>
</svg>
